<svg xmlns="http://www.w3.org/2000/svg" xml:space="preserve" width="2048" height="2048" style="shape-rendering:geometricPrecision;text-rendering:geometricPrecision;image-rendering:optimizeQuality;fill-rule:evenodd;clip-rule:evenodd"><defs><style>.fil3{fill:none}</style></defs><g id="Layer_x0020_1"><path d="M1024 255.242c102.744 0 195.767 41.65 263.101 108.985 67.337 67.336 108.986 160.358 108.986 263.103 0 102.743-41.65 195.767-108.986 263.101-67.335 67.337-160.357 108.986-263.101 108.986-102.745 0-195.767-41.65-263.103-108.986-67.336-67.335-108.985-160.358-108.985-263.101 0-102.744 41.65-195.767 108.985-263.103C828.233 296.891 921.254 255.242 1024 255.242z" style="fill:#29b6f6"/><path d="m1168.74 1000.03-59.965-.038-169.299-.104-59.153-.035v.14c-119.71 0-230.11 43.146-309.896 113.815-77 68.2-125.374 162.23-125.374 267.58v315.274c347.654 96.492 817.87 153.116 1157.9 3.989v-319.263c0-230.537-218.279-381.216-434.209-381.216v-.142z" style="fill:#0288d1;fill-rule:nonzero"/><path d="M1108.77 999.995a45.606 45.606 0 0 1 6.367 4.902c8.752 8.067 14.185 19.334 14.185 31.899l-3.015 12.382-47.302 93.53.128.529 24.966 329.38-.052.005a28.839 28.839 0 0 1-1.099 10.92v.106c-.898 3.012-2.136 5.517-3.497 7.696l-51.361 69.664v.109c-2.958 3.961-6.76 7.095-11.312 9.318l.02.042a31.147 31.147 0 0 1-13.738 3.165h-.08c-4.804 0-9.743-1.257-14.18-3.536h-.11a30.68 30.68 0 0 1-11.337-10.049l-.024.017-46.526-67.91-.108-.216c-1.963-2.93-3.334-5.954-4.179-9.093l.072-.02c-.8-2.976-1.173-5.661-1.173-8.125l.109-1.936 23.268-329.43c1.296-6.614-40.478-81.56-46.893-93.845l-3.232-12.704c0-12.467 5.419-23.71 14.164-31.797a46.273 46.273 0 0 1 6.64-5.107l169.299.104z" style="fill:#29b6f6;fill-rule:nonzero"/><path class="fil3" d="M0 0h2048v2048H0z"/><path class="fil3" d="M255.999 255.999h1536v1536h-1536z"/><g id="_348181136"><path id="_348181352" d="m1041.38 450.063 4.363-8.396h.112c2.602-4.986 6.049-9.258 10.08-12.629 4.18-3.492 8.983-6.156 14.152-7.788a41.483 41.483 0 0 1 16.073-1.782v.01c5.207.462 10.428 1.986 15.371 4.52l.223.114 40.623 21.18.023-.042c10.259 5.33 17.348 14.232 20.551 24.325l-.103.034c3.186 10.058 2.55 21.33-2.62 31.408v.224l-5.128 9.838a167.3 167.3 0 0 1 7.444 9.446 175.178 175.178 0 0 1 6.625 9.737l11.138-2.168c11.212-2.17 22.271.41 31.062 6.343 8.792 5.935 15.343 15.265 17.538 26.593l8.764 45.122v.113c2.132 11.17-.442 22.174-6.35 30.93-5.93 8.782-15.207 15.327-26.461 17.537h-.112l-11.706 2.28c-.734 3.759-1.59 7.492-2.565 11.188a177.495 177.495 0 0 1-3.332 11.132l9.165 7.824c4.1 3.508 7.454 7.823 9.927 12.663 2.516 4.924 4.07 10.147 4.527 15.373v.897a42.565 42.565 0 0 1-.156 6.596l-.009-.002c-.254 2.544-.641 4.796-1.157 6.708a41.682 41.682 0 0 1-3.406 8.632c-1.366 2.598-3.095 5.142-5.193 7.58l.018.013-29.843 34.961c-7.51 8.727-17.771 13.613-28.291 14.439h-.112c-10.505.82-21.357-2.401-30.065-9.88l-8.574-7.311a177.415 177.415 0 0 1-10.535 5.189 172.242 172.242 0 0 1-11.234 4.605l-.396 11.054v.035a41.452 41.452 0 0 1-13.146 28.866c-7.701 7.194-18.163 11.45-29.59 11.062h-.034l-45.022-1.56v.082h-.001l-.9-.114c-11.555-.402-21.79-5.4-29.016-13.151-7.017-7.532-11.227-17.664-11.078-28.712h-.092l.112-.9.33-9.588a165.467 165.467 0 0 1-11.312-5.232 167.715 167.715 0 0 1-11.405-6.389l-7.328 5.426-.003-.003-.022.022c-9.226 6.834-20.277 9.301-30.691 7.761-10.468-1.547-20.375-7.123-27.247-16.356l.002-.002-.022-.023-27.37-36.968-.112-.112c-3.244-4.42-5.56-9.358-6.85-14.528v-.11c-1.308-5.26-1.61-10.715-.796-16.084l.112-.112c.849-5.433 2.707-10.524 5.406-15.04 2.782-4.65 6.381-8.702 10.637-11.913l.225-.113 6.369-4.705c-1.21-4.319-2.244-8.66-3.1-13.016a164.457 164.457 0 0 1-2.053-13.23l-7.439-1.994c-11.037-2.966-19.858-10.139-25.174-19.329-5.334-9.218-7.165-20.443-4.21-31.48l11.894-44.41c2.955-11.003 10.185-19.822 19.452-25.168 9.214-5.317 20.414-7.146 31.385-4.209l7.489 2.006a172.821 172.821 0 0 1 16.485-19.091l-3.198-7.16-.112-.226a41.968 41.968 0 0 1-3.455-15.704c-.131-5.398.742-10.754 2.675-15.766l-.02-.01a41.545 41.545 0 0 1 8.607-13.65c3.738-3.955 8.2-7.168 13.166-9.412h.113l41.914-18.643-.02-.04.045-.02.226-.114c10.433-4.6 21.718-4.572 31.548-.803a41.333 41.333 0 0 1 23.015 21.856l.224.452.019.044-.021.008 3.517 7.903c4.328-.14 8.656-.112 12.98.077 4.178.183 8.333.51 12.461.98z" style="fill:#039be5"/><path id="_348181208" d="M984.933 473.628c-.749-1.375-2.02-3.184-3.425-3.722-.567-.217-1.813-.572-2.594-.543l-39.81 17.708a6.156 6.156 0 0 0-1.292 1.053c-.402.424-.74.903-.996 1.425l-.188.487c-.24.62-.308 1.34-.293 1.997.01.386.029.938.097 1.377l.096.195 11.99 26.853-15.36 15.36a123.28 123.28 0 0 0-11.752 13.608l-12.791 17.219-27.426-7.348c-1.441-.386-2.895-.118-4.176.62-1.307.755-2.317 1.902-2.711 3.374l-10.656 39.79c-.393 1.463-.152 2.926.602 4.23.76 1.314 1.936 2.242 3.403 2.634l27.423 7.35 2.435 21.353c.357 3.128.839 6.241 1.447 9.329.613 3.112 1.349 6.2 2.204 9.254l5.869 20.964-23.585 17.425a6.336 6.336 0 0 0-1.03 1.317c-.39.653-.628 1.395-.745 2.144l-.123.785c.015.413.08.83.18 1.226l.278 1.115 24.829 33.537c1.002 1.197 2.512 2.53 4.065 2.76 1.423.21 2.79-.116 3.94-.98l.18-.133 23.679-17.53 18.155 11.116a118.675 118.675 0 0 0 8.073 4.522 115.67 115.67 0 0 0 7.974 3.687l16.64 6.954h2.867l-.015 1.193.636.267-1.05 30.43v.105c-.021 1.43.467 2.72 1.441 3.766.946.858 3.879 1.513 5.75 1.83l39.305 1.36c1.485.036 2.902-.4 3.999-1.426 1.055-.986 1.73-2.266 1.773-3.724l.007-.231 1.11-31.052 19.85-7.334c2.706-1 5.377-2.095 8.005-3.282a126.247 126.247 0 0 0 7.56-3.723l18.987-10.15 24.061 20.521c1.162.99 4.02 1.246 5.783 1.294.74-.41 1.657-1.326 2.108-1.855l5.878-6.885-.13-.107 21.07-24.456c.23-.267.473-.579.637-.894.188-.353.356-.738.471-1.125.066-.334.103-.71.136-1.042l.002-.023c.021-.561.012-1.146.003-1.723-.193-.43-.419-.867-.612-1.244-.318-.621-.746-1.242-1.28-1.698l-24.421-20.85 6.776-20.208a126.466 126.466 0 0 0 4.23-16.007l4.074-20.875 31.88-6.208a5.56 5.56 0 0 0 3.162-2.289 5.435 5.435 0 0 0 .846-4.133l-.56-2.931v-.05l-7.273-37.445c-.294-1.522-1.097-2.81-2.386-3.68-1.234-.835-2.668-1.15-4.134-.864l-31.163 6.07-11.534-18.241a125.149 125.149 0 0 0-4.743-6.97 118.112 118.112 0 0 0-5.265-6.684l-13.715-16.187 10.827-20.767v-.092l3.48-6.786c.677-1.32.787-2.786.34-4.2l-.306-.967a5.598 5.598 0 0 0-1.81-1.98l-37.056-19.32c-.64-.326-1.5-.68-2.228-.743a5.426 5.426 0 0 0-2.112.255c-.708.223-1.37.622-1.938 1.096-.533.445-.971 1.088-1.29 1.698l-8.854 16.963h-.062l-5.081 9.779-21.574-2.458c-2.98-.339-5.973-.575-8.97-.706-3.079-.135-6.163-.154-9.243-.055l-21.216.678-11.639-26.147z" style="fill:#b3e5fc"/></g></g></svg>