<svg xmlns="http://www.w3.org/2000/svg" viewBox="0 0 512 512" style="enable-background:new 0 0 512 512" xml:space="preserve"><circle style="fill:#e28eca" cx="256" cy="255.975" r="256"/><path style="fill:#b674a7" d="M510.88 280.115c-6.57 70.4-41.65 132.52-93.58 174.71-44.02 35.77-100.16 57.2-161.3 57.2-33.38 0-65.27-6.39-94.51-18.02-20.59-8.17-39.86-18.95-57.42-31.92C40.94 415.455 0 340.525 0 256.025c0-6.99.28-13.9.83-20.75.88-1.41 1.79-2.81 2.73-4.19-.75-.41-1.5-.84-2.24-1.27 8.3-81.58 54.9-151.82 121.52-192.47 24.62 10.45 44.7 29.38 55.04 54.87 11.1 27.4 8.83 57.18-3.8 83.18-4.08 8.41-1.74 18.42 5.62 24.18 5.45 4.27 10.47 9.07 14.92 14.38 2.61 3.07 5.01 6.3 7.22 9.7.08.12.16.25.24.37a97.357 97.357 0 0 1 8.39 16.17l.42 1.08c2.02-.62 4.04-1.21 6.06-1.78 3.01-.85 6.01-1.65 9.02-2.4 3.27-.81 6.54-1.56 9.81-2.25 3.29-.7 6.57-1.34 9.84-1.91 11.95-2.1 23.79-3.38 35.43-3.87 3.22-.15 6.42-.23 9.6-.24 3.42-.03 6.83.02 10.2.15 2.63.08 5.24.21 7.84.39 5.51.35 10.95.9 16.31 1.63 2 .27 3.98.57 5.95.9.33.04.65.09.98.16 4.96.82 9.84 1.8 14.63 2.95 1.66.39 3.32.81 4.96 1.24.79.21 1.58.38 2.38.5 7.35 1.21 14.88-.89 20.56-5.83 24.21-21.07 58-26.36 84.75-10.63 14.2 8.34 24.18 21.29 29.44 36.3 3.59 10.25 11.06 18.74 21.06 23.01.39.17.78.34 1.17.52z"/><path style="fill:#cba17e" d="M225.975 174.545h74.88v79.05h-74.88z"/><path style="fill:#add6f7" d="M417.3 307.685v147.14c-44.02 35.77-100.16 57.2-161.3 57.2-33.38 0-65.27-6.39-94.51-18.02-20.59-8.17-39.86-18.95-57.42-31.92v-154.4s6.65-41.61 45.76-55.75a174.84 174.84 0 0 0 15.97-6.73c1.85-.88 3.66-1.77 5.45-2.68 2.03-1.05 4.02-2.11 5.97-3.2 8.1-4.49 15.42-9.21 21.65-13.57a253.427 253.427 0 0 0 16.05-12.14c.11-.08.21-.17.31-.25 3.43-2.83 5.33-4.57 5.33-4.57-.12 3.66 2.04 8.4 5.41 13.51 2.56 3.89 5.82 7.99 9.32 11.99.16.19.33.37.49.55a33.487 33.487 0 0 0 18.64 10.41c.1.02.2.03.3.05l.01.01c4.14.73 8.39.69 12.51-.12.97-.19 1.93-.42 2.88-.7 5.96-1.73 11.53-5.13 15.96-10.2 1.58-1.81 3.12-3.65 4.57-5.47 5.93-7.5 10.33-14.84 10.16-20.03l.04.04c.34.31 3.15 2.85 7.9 6.65a240.276 240.276 0 0 0 7.79 5.99c2.87 2.13 6.08 4.41 9.57 6.77 1.33.89 2.69 1.8 4.1 2.7.57.37 1.14.74 1.72 1.11 5 3.17 10.45 6.39 16.25 9.45 3.63 1.91 7.39 3.77 11.26 5.51.12.05.23.11.35.15 3.82 1.72 7.74 3.32 11.75 4.77 39.1 14.14 45.76 55.75 45.76 55.75z"/><path style="fill:#85c7ec" d="M230.715 185.363s-33.151 12.367-3.366 88.814c0 0 8.987-31.478 27.537-28.668-.001 0-30.917-36.538-24.171-60.146zM293.4 185.441s33.151 12.367 3.366 88.814c0 0-8.987-31.478-27.537-28.668 0 0 30.916-36.538 24.171-60.146z"/><path style="fill:#e8b88f" d="M321.374 117.941c.299-2.17.489-3.47.489-3.47 3.1-25.682-3.985-57.12-3.985-57.12-9.742-28.782-54.464-27.01-54.464-27.01s-44.722-1.771-54.464 27.01c0 0-7.085 31.438-3.985 57.12 0 0 5.314 36.309 3.985 46.05 0 0 14.169 48.707 54.464 48.264 37.447.412 52.328-41.62 54.244-47.562 12.344 1.258 13.503-23.728 13.503-23.728 1.771-6.642 3.1-17.942 3.1-17.942-2.578-7.258-9.377-3.95-12.887-1.612z"/><path style="fill:#d2a886" d="M257.142 187.457c-8.501-10.982-13.241-24.384-14.143-38.243-.932-14.319-3.923-34.743-3.923-34.743-3.095-25.687 3.982-57.116 3.982-57.116 5.754-16.987 23.69-23.328 37.42-25.675-9.548-1.635-17.062-1.336-17.062-1.336s-44.722-1.772-54.47 27.01c0 0-7.077 31.429-3.982 57.116 0 0 .19 1.3.489 3.469-3.511-2.338-10.308-5.645-12.886 1.614 0 0 1.328 11.3 3.1 17.942 0 0 1.159 24.982 13.5 23.728 1.924 5.965 16.805 47.975 54.249 47.558 6.316.075 11.995-1.061 17.062-3.046-9.948-3.846-17.611-10.883-23.336-18.278z"/><path style="fill:#e4975f" d="M330.399 77.281s-2.882-25.993-20.011-38.935a8.725 8.725 0 0 0-1.327-4.533C301.713 21.91 286.66 8.852 255.98 8.852c0 0-64.247 4.079-62.84 57.736a7.078 7.078 0 0 0 3.641 6.023c-1.149 15.412-1.138 32.893 8.673 45.329 0 0 7-25.573 5.864-45.874a40.469 40.469 0 0 0 5.996-2.506s38.123-33.25 82.202-22.653c2.395.576 4.628.17 6.442-.864 8.846 8.486 18.236 30.701 15.416 71.898 0 0 13.082-13.731 9.025-40.66z"/><path style="fill:#bd7d52" d="M217.279 66.592c.012.899.2 1.76.537 2.559-.325.262-.499.412-.499.412a41.253 41.253 0 0 1-5.991 2.509c1.136 20.295-5.871 45.869-5.871 45.869-9.811-12.432-9.818-29.918-8.67-45.333a7.084 7.084 0 0 1-3.645-6.016c-1.398-53.659 62.845-57.74 62.845-57.74 5.617 0 10.722.437 15.34 1.236-17.538 3.344-55.132 15.327-54.046 56.504z"/><path style="fill:#556aac" d="M273.388 264.916H251.765l-10.973 77.507v80.506h43.569v-80.506z"/><path style="fill:#4e6297" d="m242.327 263.283 15.377 18.844c2.774 3.4 7.991 3.332 10.675-.14l14.557-18.825a6.818 6.818 0 0 0-.711-9.126l-7.384-6.977a6.817 6.817 0 0 0-4.682-1.862h-14.902a6.817 6.817 0 0 0-4.588 1.775l-7.647 6.958a6.818 6.818 0 0 0-.695 9.353z"/><path style="fill:#c5d5fc" d="M417.3 307.685v147.14c-44.02 35.77-100.16 57.2-161.3 57.2-33.38 0-65.27-6.39-94.51-18.02-20.59-8.17-39.86-18.95-57.42-31.92v-154.4s6.65-41.61 45.76-55.75a174.84 174.84 0 0 0 15.97-6.73l-.13-.7a5.05 5.05 0 0 1-.07-1.55l5.65-.43 5.53-.43 1.97-.15 10.2 18.87 37.03 68.5 16.04 4.43.48.13 20.55 49.74 16.32-39.56 4.99 1.38 11.71 3.23 38.19-83.75 1.95-1.39 12.48-8.87 10.75-7.64.44-.31-.09.46c3.82 1.72 7.74 3.32 11.75 4.77 39.1 14.14 45.76 55.75 45.76 55.75z"/><path style="fill:#b9c9e7" d="M189.39 261.645c-.15.11-.3.23-.44.34-4.99 3.87-9.1 8.21-12.48 12.63a74.387 74.387 0 0 0-3.64 5.19c-9.17 14.29-11.34 27.88-11.34 27.88v186.32c-20.59-8.17-39.86-18.95-57.42-31.92v-154.4s6.65-41.61 45.76-55.75a174.84 174.84 0 0 0 15.97-6.73l-.13-.7a5.05 5.05 0 0 1-.07-1.55l5.65-.43 5.53-.43 1.97-.15 10.2 18.89.44.81z"/><path style="fill:#fff" d="m263.048 383.612-49.609-30.977a11.834 11.834 0 0 1-5.561-9.664l-1.048-33.001-12.152 5.335c-6.909 3.033-14.854-1.086-16.357-8.481l-12.519-61.621-.137-.699a4.943 4.943 0 0 1-.062-1.548 4.785 4.785 0 0 1 2.147-3.395l24.252-15.702c2.409-1.56 5.617-.624 6.865 1.897.05.112.087.212.137.325l43.498 107.791 20.546 49.74zM360.33 244.505l-.449 2.197-.087.462-12.119 59.661c-1.502 7.395-9.447 11.514-16.357 8.481l-12.152-5.335-1.048 33.007a11.837 11.837 0 0 1-5.553 9.659l-49.517 30.976 16.326-39.554 46.731-115.817.874-2.159c1.123-2.771 4.493-3.844 7.015-2.222l24.252 15.702a4.754 4.754 0 0 1 2.084 4.942z"/><path style="fill:#354488" d="M187.961 219.317c-7.414 7.402-11.496 17.25-11.496 27.722v117.746c-15.004 2.705-26.426 15.85-26.426 31.621v26.523h12.482v-26.523c0-10.84 8.819-19.659 19.659-19.659 10.84 0 19.659 8.819 19.659 19.659v26.523h12.482v-26.523c0-15.4-10.89-28.3-25.373-31.417v-117.95c0-7.139 2.783-13.855 7.839-18.897a26.467 26.467 0 0 1 17.861-7.801c-.025-4.768.387-8.912 1.098-12.507h-.062c-10.473 0-20.321 4.069-27.723 11.483zM337.204 220.091l-.774-.774c-7.402-7.414-17.25-11.483-27.722-11.483h-.924c.711 3.582 1.123 7.726 1.111 12.482 7.065.05 13.717 2.821 18.71 7.826l.774.774c5.043 5.043 7.826 11.758 7.826 18.897v122.694h12.482V247.812c0-10.472-4.081-20.32-11.483-27.721z"/><path style="fill:#9aa0b4" d="M168.606 481.072c-10.254 0-18.566-8.312-18.566-18.566v-39.577h12.482v39.577a6.085 6.085 0 0 0 6.085 6.085 2.86 2.86 0 0 1 2.86 2.86v6.761a2.86 2.86 0 0 1-2.861 2.86zM195.754 481.072a2.86 2.86 0 0 1-2.86-2.86v-6.761a2.86 2.86 0 0 1 2.86-2.86 6.085 6.085 0 0 0 6.085-6.085v-39.577h12.482v39.577c-.001 10.254-8.313 18.566-18.567 18.566z"/><circle style="fill:#fff" cx="342.465" cy="383.612" r="21.219"/><circle style="fill:#9aa0b4" cx="342.465" cy="383.612" r="13.106"/><ellipse style="fill:#cb9b74" cx="255.265" cy="146.699" rx="5.883" ry="2.178"/><ellipse style="fill:#cb9b74" cx="273.184" cy="146.699" rx="5.883" ry="2.178"/><g><path style="fill:#cb9b74" d="M247.177 113.437a2.988 2.988 0 0 1-2.121-.879c-4.57-4.569-12.005-4.569-16.575 0a2.998 2.998 0 0 1-4.242 0 2.998 2.998 0 0 1 0-4.242c6.908-6.909 18.151-6.909 25.06 0a2.998 2.998 0 0 1-2.122 5.121z"/></g><circle style="fill:#cb9b74" cx="237.518" cy="119.555" r="5.867"/><circle style="fill:#cb9b74" cx="287.528" cy="119.555" r="5.867"/><g><path style="fill:#cb9b74" d="M297.937 113.437a2.992 2.992 0 0 1-2.121-.878c-2.214-2.214-5.157-3.433-8.288-3.433s-6.073 1.219-8.287 3.433a3 3 0 1 1-4.242-4.243c3.347-3.347 7.796-5.19 12.529-5.19s9.184 1.843 12.53 5.19a3 3 0 0 1-2.121 5.121z"/></g><g><path style="fill:#cb9b74" d="M254.888 138.975a2.998 2.998 0 0 1-2.911-3.734l5.8-23a3 3 0 0 1 5.819 1.467l-5.801 23a3.002 3.002 0 0 1-2.907 2.267z"/></g><g><path style="fill:#cb9b74" d="M273.608 171.641h-17.693c-1.319 0-2.576-.791-2.964-2.052-.633-2.06.89-3.948 2.855-3.948h17.607c1.639 0 3.12 1.226 3.193 2.864a3 3 0 0 1-2.998 3.136z"/></g></svg>