          <svg xmlns="http://www.w3.org/2000/svg" viewBox="0 0 511.999 511.999" style="enable-background:new 0 0 511.999 511.999" xml:space="preserve"><circle style="fill:#ef3a47" cx="255.751" cy="90.417" r="82.636"/><path style="fill:#ce3043" d="M255.749 7.783c-4.964 0-9.817.462-14.54 1.302 38.699 6.874 68.095 40.659 68.095 81.333s-29.395 74.459-68.095 81.333a83.029 83.029 0 0 0 14.54 1.302c45.638 0 82.634-36.996 82.634-82.634-.001-45.639-36.997-82.636-82.634-82.636z"/><path style="fill:#a0a0a0" d="M407.075 290.716h73.017v213.495h-73.017z"/><path style="fill:#878787" d="M407.075 290.716h30.082v213.495h-30.082z"/><path style="fill:#a0a0a0" d="M31.905 290.716h73.017v213.495H31.905z"/><path style="fill:#f9f1ef" d="M321.772 140.106c-15.081 20.007-39.039 32.946-66.024 32.946s-50.943-12.938-66.024-32.946h-84.801v364.109h302.154V140.106h-85.305z"/><path style="fill:#dddbdb" d="M377.996 140.103h29.08v364.108h-29.08z"/><path style="fill:#565656" d="M151.144 378.998h209.705v32.657H151.144z"/><path style="fill:#00c1ec" d="M157.943 289.472h42.04v42.04h-42.04zM234.984 289.472h42.04v42.04h-42.04zM312.015 289.472h42.04v42.04h-42.04zM157.943 216.703h42.04v42.04h-42.04zM234.984 216.703h42.04v42.04h-42.04zM312.015 216.703h42.04v42.04h-42.04zM256.001 411.657h87.249v92.503h-87.249z"/><path style="fill:#00aade" d="M316.176 411.657h27.074v92.503h-27.074z"/><path style="fill:#00c1ec" d="M168.752 411.657h87.249v92.503h-87.249z"/><path style="fill:#00aade" d="M228.927 411.657h27.074v92.503h-27.074z"/><path style="fill:#565656" d="M7.521 250.335h97.407v40.381H7.521zM407.075 250.335h97.407v40.381h-97.407zM173.649 99.721H77.274v40.385h112.45a82.197 82.197 0 0 1-16.075-40.385zM337.848 99.721a82.201 82.201 0 0 1-16.075 40.385h112.954V99.721h-96.879z"/><path style="fill:#f9f1ef" d="M288.303 76.199h-18.335V57.863a5.1 5.1 0 0 0-5.101-5.101H246.63a5.1 5.1 0 0 0-5.101 5.101v18.335h-18.335a5.1 5.1 0 0 0-5.101 5.101v18.237a5.1 5.1 0 0 0 5.101 5.101h18.335v18.335a5.1 5.1 0 0 0 5.101 5.101h18.237a5.1 5.1 0 0 0 5.101-5.101v-18.335h18.335a5.1 5.1 0 0 0 5.1-5.101V81.299a5.1 5.1 0 0 0-5.1-5.1z"/><path style="fill:#878787" d="M74.845 290.716h30.082v213.495H74.845z"/><path style="fill:#494949" d="M74.845 250.335h30.082v40.381H74.845zM407.075 250.335h30.082v40.381h-30.082z"/><path d="M504.479 242.809h-89.882v-29.742a7.521 7.521 0 0 0-15.042 0v283.626h-48.784v-77.515h10.082a7.521 7.521 0 0 0 7.521-7.521V379a7.521 7.521 0 0 0-7.521-7.521H151.146a7.521 7.521 0 0 0-7.521 7.521v32.657a7.521 7.521 0 0 0 7.521 7.521h10.082v77.515h-48.784V147.627h73.629c15.252 18.603 36.773 30.105 60.469 32.479l.008.001a96.22 96.22 0 0 0 2.16.193c.186.014.372.025.558.038.571.04 1.14.079 1.713.109.381.02.763.032 1.145.047.402.016.803.035 1.205.046a92.49 92.49 0 0 0 2.419.033c.808 0 1.614-.012 2.419-.033.403-.01.804-.03 1.205-.046.382-.015.765-.027 1.145-.047.572-.029 1.142-.069 1.712-.109.187-.013.373-.024.559-.038.722-.055 1.441-.12 2.159-.193l.009-.001c23.696-2.374 45.217-13.877 60.469-32.479h74.132v35.359a7.521 7.521 0 0 0 15.042 0v-35.359h20.128a7.521 7.521 0 0 0 7.521-7.521V99.721a7.521 7.521 0 0 0-7.521-7.521h-88.845c.012-.594.023-1.187.023-1.783 0-49.711-40.444-90.155-90.155-90.155-17.849 0-35.105 5.208-49.905 15.062a7.52 7.52 0 1 0 8.336 12.52c12.322-8.203 26.696-12.54 41.569-12.54 41.418 0 75.114 33.696 75.114 75.114 0 3.158-.219 6.264-.599 9.321a75.634 75.634 0 0 1-.735 4.715 75.252 75.252 0 0 1-.337 1.702 72.094 72.094 0 0 1-.6 2.59c-.117.468-.249.933-.375 1.398a77.096 77.096 0 0 1-.511 1.798c-.124.415-.248.831-.379 1.244-.306.958-.624 1.91-.967 2.851-.076.212-.16.42-.239.63a74.122 74.122 0 0 1-1.048 2.652c-.07.168-.139.337-.211.505-10.501 24.587-33.749 42.478-61.394 45.313l-.102.01a75.86 75.86 0 0 1-3.624.277l-.381.016c-1.197.057-2.4.091-3.611.091-1.211 0-2.414-.035-3.611-.091l-.381-.016a74.58 74.58 0 0 1-3.624-.277l-.101-.01c-27.646-2.835-50.894-20.727-61.395-45.314-.071-.166-.139-.334-.21-.501a74.733 74.733 0 0 1-1.052-2.663c-.077-.206-.158-.41-.234-.617a73.406 73.406 0 0 1-1.864-5.917c-.124-.456-.253-.91-.368-1.369a75.52 75.52 0 0 1-.605-2.611 92.972 92.972 0 0 1-.582-3.069 74.284 74.284 0 0 1-.452-3.052 75.346 75.346 0 0 1-.635-9.604c0-16.38 5.177-31.944 14.972-45.008a7.522 7.522 0 0 0-12.035-9.023c-11.761 15.689-17.978 34.372-17.978 54.031 0 .596.011 1.19.023 1.783H77.278a7.521 7.521 0 0 0-7.521 7.521v40.385a7.521 7.521 0 0 0 7.521 7.521h20.128v95.183H7.521A7.521 7.521 0 0 0 0 250.334v40.385a7.521 7.521 0 0 0 7.521 7.521h16.864v50.683a7.521 7.521 0 0 0 15.042 0V298.24h57.976v198.459H39.426V379.002a7.521 7.521 0 0 0-15.042 0v125.214a7.521 7.521 0 0 0 7.521 7.521h448.188a7.521 7.521 0 0 0 7.521-7.521v-205.98h16.864a7.521 7.521 0 0 0 7.521-7.521V250.33a7.52 7.52 0 0 0-7.52-7.521zm-77.273-135.567v25.343h-91.767c.187-.352.357-.711.538-1.066.063-.121.123-.245.186-.367.448-.885.883-1.777 1.302-2.675.215-.458.427-.918.634-1.38.163-.367.325-.734.483-1.103a92.722 92.722 0 0 0 1.078-2.598 89.11 89.11 0 0 0 1.121-3.016l.079-.226a89.4 89.4 0 0 0 3.464-12.912h82.882zm-342.411 0h82.38a89.22 89.22 0 0 0 3.55 13.155c.353.999.718 1.991 1.105 2.974l.019.05c.34.861.698 1.715 1.063 2.563.161.376.327.751.493 1.126.2.447.405.89.613 1.333.431.929.88 1.848 1.344 2.762.05.098.099.199.15.297.185.36.358.726.548 1.084H84.795v-25.344zm-52.89 175.952H15.041v-25.343h82.362v25.343H31.905zm303.826 213.448H263.52v-77.463h72.211v77.463zM158.667 386.521h194.667v17.616H158.666l.001-17.616zm89.813 32.658v77.463h-72.211v-77.463h72.211zm224.094 77.515h-57.976V298.235h57.976v198.459zm24.385-213.5h-82.36v-25.343h82.362l-.002 25.343z"/><path d="M264.867 45.241H246.63c-6.959 0-12.622 5.662-12.622 12.622v10.815h-10.815c-6.959 0-12.621 5.662-12.621 12.622v18.237c0 6.959 5.661 12.622 12.621 12.622h10.815v10.815c0 6.959 5.662 12.622 12.622 12.622h18.237c6.959 0 12.621-5.662 12.621-12.622v-10.815h10.815c6.959 0 12.622-5.662 12.622-12.622V81.299c0-6.959-5.662-12.622-12.622-12.622h-10.815V57.863c-.001-6.96-5.662-12.622-12.621-12.622zm21.016 38.477v13.397h-15.916a7.521 7.521 0 0 0-7.521 7.521v15.916H249.05v-15.916a7.521 7.521 0 0 0-7.521-7.521h-15.916V83.718h15.916a7.521 7.521 0 0 0 7.521-7.521V60.282h13.397v15.916a7.521 7.521 0 0 0 7.521 7.521h15.915zM199.986 281.951h-42.04a7.521 7.521 0 0 0-7.521 7.521v42.04a7.521 7.521 0 0 0 7.521 7.521h42.04a7.521 7.521 0 0 0 7.521-7.521v-42.04a7.521 7.521 0 0 0-7.521-7.521zm-7.521 42.04h-26.999v-26.999h26.999v26.999zM277.02 281.951h-42.04a7.521 7.521 0 0 0-7.521 7.521v42.04a7.521 7.521 0 0 0 7.521 7.521h42.04a7.521 7.521 0 0 0 7.521-7.521v-42.04a7.521 7.521 0 0 0-7.521-7.521zm-7.521 42.04H242.5v-26.999h26.999v26.999zM354.055 281.951h-42.04a7.521 7.521 0 0 0-7.521 7.521v42.04a7.521 7.521 0 0 0 7.521 7.521h42.04a7.521 7.521 0 0 0 7.521-7.521v-42.04a7.52 7.52 0 0 0-7.521-7.521zm-7.52 42.04h-26.999v-26.999h26.999v26.999zM207.507 216.699a7.521 7.521 0 0 0-7.521-7.521h-42.04a7.521 7.521 0 0 0-7.521 7.521v42.04a7.521 7.521 0 0 0 7.521 7.521h42.04a7.521 7.521 0 0 0 7.521-7.521v-42.04zm-15.042 34.52h-26.999V224.22h26.999v26.999zM284.541 216.699a7.521 7.521 0 0 0-7.521-7.521h-42.04a7.521 7.521 0 0 0-7.521 7.521v42.04a7.521 7.521 0 0 0 7.521 7.521h42.04a7.521 7.521 0 0 0 7.521-7.521v-42.04zm-15.042 34.52H242.5V224.22h26.999v26.999zM361.576 216.699a7.521 7.521 0 0 0-7.521-7.521h-42.04a7.521 7.521 0 0 0-7.521 7.521v42.04a7.521 7.521 0 0 0 7.521 7.521h42.04a7.521 7.521 0 0 0 7.521-7.521v-42.04zm-15.041 34.52h-26.999V224.22h26.999v26.999z"/></svg>
