<svg xmlns="http://www.w3.org/2000/svg" xml:space="preserve" width="2048" height="2048" style="shape-rendering:geometricPrecision;text-rendering:geometricPrecision;image-rendering:optimizeQuality;fill-rule:evenodd;clip-rule:evenodd"><defs><style>.fil0{fill:none}.fil1{fill:#471e00}.fil2{fill:#fad3a8}</style></defs><g id="Layer_x0020_1"><path class="fil0" d="M256 255.999h1536v1536H256z"/><path class="fil0" d="M0 0h2048v2048H0z"/><path class="fil1" d="M1011.14 256.001c230.326 0 417.024 196.533 417.024 438.966 0 242.45-186.698 438.984-417.024 438.984-230.309 0-417.017-196.534-417.017-438.984 0-242.433 186.708-438.966 417.017-438.966z"/><path class="fil2" d="M1025.12 439.576c183.96 0 328.465 110.068 305.416 373.866-6.559 75.094 59.63 35.43 59.63 62.563 0 224.02-169.684 405.622-379.024 405.622-209.312 0-379.015-181.602-379.015-405.622 44.678 71.718 51.515-19.252 49.504-61.202-16.52-343.422 150.643-375.227 343.49-375.227z"/><path d="m1083.14 935.237-19.691-22.037.526-.544.545-.51.563-.473.578-.438.593-.403.607-.366.619-.332.63-.297.64-.26.647-.225.655-.189.662-.155.666-.118.67-.084.671-.047.672-.013.674.024.67.058.67.094.664.129.66.164.651.2.646.236.636.27.626.306.614.34.602.377.587.412.573.447.556.483.539.517.52.553.493.581.462.601.429.621.397.638.365.655.331.67.302.682.268.694.236.706.203.715.173.723.139.73.107.735.076.738.044.742.012.741-.022.743-.053.74-.085.738-.117.733-.149.728-.18.72-.214.711-.245.702-.277.69-.31.679-.341.664-.373.648-.405.632-.437.614-.47.594-.5.573zm-143.986-.001 19.691-22.035 2.752 2.844 2.847 2.657 2.937 2.472 3.024 2.287 3.103 2.105 3.178 1.923 3.247 1.74 3.307 1.56 3.364 1.375 3.412 1.193 3.456 1.01 3.492.829 3.52.645 3.541.459 3.559.276 3.563.092 3.562-.092 3.559-.276 3.54-.46 3.522-.644 3.491-.828 3.456-1.011 3.415-1.193 3.362-1.375 3.307-1.56 3.247-1.74 3.178-1.923 3.103-2.105 3.024-2.287 2.937-2.472 2.847-2.657 2.752-2.845 19.691 22.037-3.789 3.918-3.933 3.67-4.062 3.416-4.183 3.167-4.294 2.912-4.392 2.658-4.482 2.405-4.564 2.15-4.636 1.896-4.695 1.642-4.748 1.389-4.79 1.135-4.828.883-4.852.63-4.867.378-4.878.127-4.88-.127-4.866-.378-4.852-.63-4.826-.883-4.792-1.135-4.748-1.39-4.695-1.64-4.635-1.898-4.563-2.15-4.483-2.404-4.392-2.658-4.294-2.912-4.183-3.167-4.062-3.417-3.933-3.67-3.789-3.918zm19.691-22.035-19.691 22.035-.5-.573-.47-.594-.437-.614-.405-.632-.373-.649-.341-.663-.31-.678-.277-.691-.245-.702-.214-.712-.18-.72-.15-.727-.116-.733-.085-.737-.053-.74-.022-.744.012-.742.044-.741.076-.739.107-.734.14-.73.172-.723.203-.714.236-.707.268-.694.301-.683.332-.668.365-.655.397-.639.429-.62.462-.601.493-.581.52-.553.539-.517.556-.482.573-.448.587-.41.602-.378.614-.34.626-.307.636-.27.646-.235.652-.2.659-.164.665-.13.668-.093.671-.058.673-.024.673.013.672.047.67.084.665.118.662.155.655.19.648.225.64.26.63.296.618.332.607.366.593.403.578.438.563.474.545.509.526.544z" style="fill:#c99154;fill-rule:nonzero"/><path class="fil1" d="M1138.77 379.082c146.689 64.911 265.61 160.867 265.61 214.328 0 53.458-118.921 44.176-265.61-20.734-146.687-64.911-265.601-160.867-265.601-214.328 0-53.458 118.913-44.182 265.601 20.734z"/><path class="fil2" d="M582.756 737.966c20.947-9.912 54.085 29.236 73.994 87.433 19.92 58.205 19.078 113.42-1.884 123.324-20.954 9.912-54.078-29.235-73.987-87.43-19.933-58.215-19.078-113.422 1.877-123.327zM1434.49 737.966c-27.191-9.912-63.367 29.236-80.787 87.433-17.42 58.205-9.474 113.42 17.733 123.324 27.2 9.912 63.367-29.235 80.781-87.43 17.418-58.215 9.471-113.422-17.727-123.327z"/><path class="fil1" d="M750.107 414.677c-81.626 56.994-85.737 155.105-85.737 183.445 0 28.35 66.18 5.135 147.806-51.861C893.81 489.264 959.99 420.084 959.99 391.734c0-28.35-128.25-34.054-209.883 22.943z"/><path style="fill:#e6b683" d="M838.231 1545.47h345.829v-541.55H838.231z"/><path d="M1011.14 256.001c230.326 0 417.024 196.533 417.024 438.966 0 242.45-186.698 438.984-417.024 438.984-230.309 0-417.017-196.534-417.017-438.984 0-242.433 186.708-438.966 417.017-438.966z" style="fill:#333"/><path class="fil2" d="M1330.54 813.442c-6.559 75.094 59.63 35.43 59.63 62.571 0 224.012-169.698 405.613-379.024 405.613s-379.015-181.602-379.015-405.613c44.678 71.703 51.515-19.26 49.504-61.21-9.618-199.957 110.055-328.458 113.83-375.694-10.22 41.346 197.112 163.12 405.148 164.959 41.285.366 53.432-15.232 76.046 15.574 27.677 37.697 55.121 148.086 53.881 193.8z"/><path d="M1702.28 1633.99c-79.92-63.38-439.947-255.111-518.217-283.774-14.495 53.379-97.843 95.338-174.634 95.338-76.783 0-156.709-33.803-171.196-87.181-78.28 28.663-412.601 212.238-492.512 275.618 151.862 210.54 1171.86 210.826 1356.56 0z" style="fill:#0288d1"/><path class="fil2" d="M1430.43 737.966c-27.207-9.912-63.367 29.236-80.787 87.433-17.412 58.205-9.481 113.42 17.717 123.324 27.207 9.912 63.383-29.235 80.788-87.43 17.42-58.215 9.489-113.422-17.718-123.327zM591.872 737.966c27.206-9.912 63.367 29.236 80.787 87.433 17.42 58.205 9.486 113.42-17.72 123.331-27.198 9.905-63.374-29.242-80.78-87.438-17.419-58.207-9.485-113.42 17.713-123.326z"/></g></svg>